<svg height="512" viewBox="0 0 512 512" width="512" xmlns="http://www.w3.org/2000/svg"><g id="Flat"><path d="m176 216h160v136h-160z" fill="#784533"/><path d="m216 320h80v48h-80z" fill="#fdb683"/><path d="m224 168h64a48 48 0 0 1 48 48v56a80 80 0 0 1 -80 80 80 80 0 0 1 -80-80v-56a48 48 0 0 1 48-48z" fill="#fdc8a2"/><circle cx="216" cy="248" fill="#844e3a" r="16"/><circle cx="296" cy="248" fill="#844e3a" r="16"/><path d="m232 280h48a0 0 0 0 1 0 0v8a24 24 0 0 1 -24 24 24 24 0 0 1 -24-24v-8a0 0 0 0 1 0 0z" fill="#de5540"/><path d="m368 216v104a32 32 0 0 1 -32 32v-120h-7.5c-.28 0-.56 0-.83-.01a73.056 73.056 0 0 1 -71.67-63.99 73.037 73.037 0 0 1 -72 63.99c-.17.01-.33.01-.5.01h-7.5v120a31.991 31.991 0 0 1 -32-32v-104a111.983 111.983 0 0 1 104-111.71c2.64-.2 5.31-.29 8-.29s5.36.09 8 .29a111.977 111.977 0 0 1 104 111.71z" fill="#844e3a"/><path d="m168 215.877v16.123h16v-16.123a81.674 81.674 0 0 1 1.292-14.457l-15.746-2.84a97.67 97.67 0 0 0 -1.546 17.297z" fill="#784533"/><path d="m343.67 215.88v16.12h-16v-16.12c0-.64-.03-1.28-.05-1.92-16.68-8.08-34.57-21.6-53.28-40.3l11.32-11.32c13.39 13.4 26.18 23.87 38.2 31.31-8.17-24.25-29.2-47.27-59.86-55.69v30.04h-13.43c-10.46 9.32-27.32 23.3-46.37 35.05l-8.4-13.62c24.25-14.95 45.35-34.3 52.2-40.82v-11.6a76.767 76.767 0 0 0 -7.97 2.03 79.254 79.254 0 0 0 -50.68 47.82l-14.94-5.72a95.142 95.142 0 0 1 60.87-57.38 90.18 90.18 0 0 1 12.72-3v-16.47c2.64-.2 5.31-.29 8-.29s5.36.09 8 .29v17.18a105.635 105.635 0 0 1 55.89 33.78c15.11 17.53 23.78 39.63 23.78 60.63z" fill="#784533"/><path d="m184 64h144v65.996h-144z" fill="#395d7b"/><path d="m152 56 104-32 104 32-104 32z" fill="#426887"/><path d="m367.589 117.47-7.589-22.77v-38.7h-16v38.7l-7.589 22.768a8 8 0 0 0 7.589 10.532h16a8 8 0 0 0 7.589-10.53z" fill="#426887"/><path d="m104.423 215.814-18.6-54.687a19.01 19.01 0 0 0 -23.22-12.157l-25.917 7.405a17.494 17.494 0 0 0 -12.686 16.825 17.506 17.506 0 0 0 .876 5.467l20.543 62.443 58.581-25.11z" fill="#fdc8a2"/><path d="m117.46 254.15-13.037-38.336-.423.186-58.581 25.106 15.201 46.204 19.38 64.69h72z" fill="#f1ddc1"/><path d="m2.745 149.255h128v32h-128z" fill="#f1ddc1" transform="matrix(.707 -.707 .707 .707 -97.304 95.598)"/><circle cx="112" cy="120" fill="#d3c1a9" r="16"/><path d="m85.761 161.282a13.914 13.914 0 0 0 -26.4 8.8l4.639 13.918a36.616 36.616 0 0 0 -10.211 32l42.211-24z" fill="#fdc8a2"/><path d="m394.207 254.15-34.54 97.85h72l19.38-64.69 15.205-46.219-58.982-25.352z" fill="#f1ddc1"/><path d="m474.978 156.375-25.917-7.405a19.008 19.008 0 0 0 -23.219 12.157l-6.175 16.206-5.715-5.037a12.32 12.32 0 0 0 -19.833 5.347 12.319 12.319 0 0 0 2.067 11.59l14.1 17.631-3.018 8.875 58.982 25.352 20.538-62.428a17.478 17.478 0 0 0 .877-5.467 17.494 17.494 0 0 0 -12.687-16.821z" fill="#fdc8a2"/><path d="m176 352h160v80h-160z" fill="#f1ddc1"/><path d="m487 309.67-17.98 67.76v.01l-5.38 20.25-20.05 75.52v.01l-3.92 14.78h-367.67l-3.59-13.51-20.33-76.62-5.37-20.24-18.04-67.96 35.95-22.36 56.84-33.16 34.54 97.85h40a78.478 78.478 0 0 0 56 32.18 78.254 78.254 0 0 0 16 0 78.478 78.478 0 0 0 56-32.18h39.67l34.54-97.85 56.84 33.16z" fill="#426887"/><g fill="#395d7b"><path d="m89.71 338.36-41.63 59.51-5.37-20.24 33.89-48.44z"/><path d="m88.635 304h19.531v16h-19.531z" transform="matrix(.573 -.819 .819 .573 -213.626 213.683)"/><path d="m127.55 354.66-46.92 133.34h-8.63l-3.59-13.51 44.04-125.15z"/><path d="m400.26 488h-16.43l-16.97-72h-102.86v72h-16v-72h-102.82l-16.92 72h-16.43l32.38-137.83 7.79 1.83 7.79 1.83-10.85 46.17h99.06v-16h16v16h99.09l-10.88-46.17 15.58-3.66z"/><path d="m152 432h16v56h-16z"/><path d="m200 432h16v56h-16z"/><path d="m469.02 377.43v.01l-5.38 20.25-62.2-89.11 13.12-9.16z"/><path d="m443.59 473.21v.01l-3.92 14.78h-7.8l-47.41-133.32 15.08-5.36z"/><path d="m344 432h16v56h-16z"/><path d="m296 432h16v56h-16z"/></g><g fill="#ffb431"><path d="m123.867 7.918h16v104.165h-16z" transform="matrix(.845 -.535 .535 .845 -11.64 79.867)"/><path d="m56 30.059h16v67.882h-16z" transform="matrix(.707 -.707 .707 .707 -26.51 64)"/><path d="m16 12.686h16v22.627h-16z" transform="matrix(.707 -.707 .707 .707 -9.941 24)"/><path d="m28 85.296h16v48.074h-16z" transform="matrix(.555 -.832 .832 .555 -74.94 78.64)"/><path d="m371.393 28h47.348v16h-47.348z" transform="matrix(.535 -.845 .845 .535 153.276 350.501)"/><path d="m385.049 68h101.635v16h-101.635z" transform="matrix(.706 -.708 .708 .706 74.395 331.135)"/><path d="m476.42 16h22.627v16h-22.627z" transform="matrix(.707 -.707 .707 .707 125.883 351.909)"/><path d="m443.133 104h57.467v16h-57.467z" transform="matrix(.831 -.557 .557 .831 17.556 281.717)"/></g></g></svg>